<svg xmlns="http://www.w3.org/2000/svg" viewBox="0 0 1000 420">
  <!-- Background gradient -->
  <defs>
    <linearGradient id="bg-gradient" x1="0%" y1="0%" x2="100%" y2="100%">
      <stop offset="0%" stop-color="#0A2E4E" />
      <stop offset="100%" stop-color="#23527C" />
    </linearGradient>
    
    <!-- Digital circuit pattern -->
    <pattern id="circuit-pattern" patternUnits="userSpaceOnUse" width="100" height="100" patternTransform="scale(2) rotate(15)">
      <path d="M20,20 L80,20 M20,50 L50,50 L50,80 M80,50 L50,50 M20,80 L80,80" stroke="#1A5A99" stroke-width="1" fill="none" opacity="0.2"/>
      <circle cx="20" cy="20" r="3" fill="#4D9DE0" opacity="0.4"/>
      <circle cx="80" cy="20" r="3" fill="#4D9DE0" opacity="0.4"/>
      <circle cx="20" cy="80" r="3" fill="#4D9DE0" opacity="0.4"/>
      <circle cx="80" cy="80" r="3" fill="#4D9DE0" opacity="0.4"/>
      <circle cx="50" cy="50" r="3" fill="#4D9DE0" opacity="0.4"/>
    </pattern>
    
    <!-- Glow effect -->
    <filter id="glow" x="-50%" y="-50%" width="200%" height="200%">
      <feGaussianBlur stdDeviation="5" result="blur"/>
      <feComposite in="SourceGraphic" in2="blur" operator="over"/>
    </filter>
    
    <!-- Cloud shape -->
    <symbol id="cloud-shape" viewBox="0 0 100 60">
      <path d="M90,45 C94,40 95,30 90,25 C89,15 80,10 70,15 C65,5 50,5 45,15 C35,5 20,10 20,25 C10,30 10,40 20,50 C25,55 85,55 90,45 Z" />
    </symbol>
  </defs>
  
  <!-- Main background -->
  <rect width="1000" height="420" fill="url(#bg-gradient)"/>
  
  <!-- Circuit pattern overlay -->
  <rect width="1000" height="420" fill="url(#circuit-pattern)" opacity="0.15"/>
  
  <!-- Abstract data flow lines -->
  <g stroke="#4D9DE0" stroke-width="1.5" fill="none" opacity="0.6">
    <path d="M0,100 Q250,50 500,200 T1000,150" />
    <path d="M0,150 Q250,100 500,250 T1000,200" />
    <path d="M0,200 Q250,150 500,300 T1000,250" />
    <path d="M0,250 Q250,200 500,350 T1000,300" />
  </g>
  
  <!-- AWS Logo stylized -->
  <g transform="translate(50, 50) scale(0.8)" filter="url(#glow)">
    <path d="M55,30 L30,30 L30,60 L55,60 Z" fill="#FF9900" opacity="0.9"/>
    <path d="M90,30 L65,30 L65,60 L90,60 Z" fill="#FF9900" opacity="0.9"/>
    <path d="M55,65 L30,65 L30,95 L55,95 Z" fill="#FF9900" opacity="0.9"/>
    <path d="M90,65 L65,65 L65,95 L90,95 Z" fill="#FF9900" opacity="0.9"/>
    <path d="M120,47.5 C120,36.7 111.3,28 100.5,28 C89.7,28 81,36.7 81,47.5 C81,58.3 89.7,67 100.5,67 C111.3,67 120,58.3 120,47.5 Z" fill="#FF9900" opacity="0.9"/>
    <path d="M25,47.5 C25,36.7 16.3,28 5.5,28 C-5.3,28 -14,36.7 -14,47.5 C-14,58.3 -5.3,67 5.5,67 C16.3,67 25,58.3 25,47.5 Z" fill="#FF9900" opacity="0.9"/>
  </g>
  
  <!-- CDK text -->
  <g filter="url(#glow)">
    <text x="500" y="180" font-family="Arial, sans-serif" font-size="80" font-weight="bold" text-anchor="middle" fill="#FFFFFF">AWS CDK</text>
    <text x="500" y="240" font-family="Arial, sans-serif" font-size="30" font-weight="normal" text-anchor="middle" fill="#FFFFFF">Infrastructure as Code Evolved</text>
  </g>
  
  <!-- Decorative code blocks -->
  <g transform="translate(700, 80)" opacity="0.8">
    <rect width="200" height="120" rx="5" fill="#0A2E4E" stroke="#4D9DE0" stroke-width="1"/>
    <text x="10" y="30" font-family="monospace" font-size="12" fill="#4D9DE0">const app = new cdk.App();</text>
    <text x="10" y="50" font-family="monospace" font-size="12" fill="#FF9900">new MyStack(app, 'MyStack', {</text>
    <text x="20" y="70" font-family="monospace" font-size="12" fill="#FFFFFF">  env: {</text>
    <text x="30" y="90" font-family="monospace" font-size="12" fill="#FFFFFF">    region: 'us-east-1'</text>
    <text x="20" y="110" font-family="monospace" font-size="12" fill="#FFFFFF">  }</text>
    <text x="10" y="130" font-family="monospace" font-size="12" fill="#FF9900">});</text>
  </g>
  
  <!-- Cloud symbols with glow -->
  <g filter="url(#glow)">
    <use href="#cloud-shape" x="100" y="300" width="150" height="90" fill="#4D9DE0" opacity="0.6"/>
    <use href="#cloud-shape" x="750" y="280" width="120" height="72" fill="#4D9DE0" opacity="0.5"/>
  </g>
  
  <!-- Abstract construct levels representation -->
  <g transform="translate(150, 240)">
    <rect width="120" height="30" rx="5" fill="#FF9900" opacity="0.7"/>
    <rect width="120" height="30" rx="5" y="40" fill="#FF9900" opacity="0.8"/>
    <rect width="120" height="30" rx="5" y="80" fill="#FF9900" opacity="0.9"/>
    <text x="60" y="20" font-family="Arial, sans-serif" font-size="14" text-anchor="middle" fill="#FFFFFF">L3 Construct</text>
    <text x="60" y="60" font-family="Arial, sans-serif" font-size="14" text-anchor="middle" fill="#FFFFFF">L2 Construct</text>
    <text x="60" y="100" font-family="Arial, sans-serif" font-size="14" text-anchor="middle" fill="#FFFFFF">L1 Construct</text>
    <line x1="30" y1="30" x2="30" y2="110" stroke="#FFFFFF" stroke-width="2" opacity="0.6"/>
    <line x1="90" y1="30" x2="90" y2="110" stroke="#FFFFFF" stroke-width="2" opacity="0.6"/>
  </g>
  
  <!-- Flying particles -->
  <g fill="#FFFFFF">
    <circle cx="200" cy="150" r="1.5" opacity="0.8"/>
    <circle cx="350" cy="180" r="1" opacity="0.7"/>
    <circle cx="500" cy="120" r="1.5" opacity="0.9"/>
    <circle cx="650" cy="200" r="1" opacity="0.7"/>
    <circle cx="800" cy="150" r="1.5" opacity="0.8"/>
    <circle cx="250" cy="250" r="1" opacity="0.6"/>
    <circle cx="450" cy="300" r="1.5" opacity="0.7"/>
    <circle cx="600" cy="280" r="1" opacity="0.8"/>
    <circle cx="750" cy="220" r="1.5" opacity="0.7"/>
    <circle cx="300" cy="100" r="1" opacity="0.9"/>
  </g>
  
  <!-- Subtitle -->
  <text x="500" y="350" font-family="Arial, sans-serif" font-size="24" font-weight="normal" text-anchor="middle" fill="#FFFFFF" opacity="0.9">A Comprehensive Guide for Cloud Developers</text>
</svg>